<?xml version="1.0" encoding="UTF-8" standalone="no"?>
<svg width="100%" height="100%" viewBox="0 0 1000 1000" version="1.1" xmlns="http://www.w3.org/2000/svg" xmlns:xlink="http://www.w3.org/1999/xlink" xml:space="preserve" style="fill-rule:evenodd;clip-rule:evenodd;stroke-linejoin:round;stroke-miterlimit:2;">
    <circle cx="500" cy="500" r="500" fill="#0f0e0e"/>
    <g transform="translate(500 500) scale(0.78) translate(-470 -500)">
        <g transform="matrix(0.5875,0,0,0.588235,-146.875,-117.647059)">
            <g transform="matrix(0,-0.41177,0.426802,0,-194.809146,1852.659275)">
                <path d="M3607.5,4791C2960.38,4791 2435,4265.62 2435,3618.5C2435,2971.38 2960.38,2446 3607.5,2446L3607.5,2915C3230.013,2915 2904,3241.013 2904,3618.5C2904,3995.987 3230.013,4322 3607.5,4322L3607.5,4791Z" style="fill:rgb(212,180,104);"/>
            </g>
            <g transform="matrix(0.426802,0,0,0.426269,110.736742,-142.253134)">
                <path d="M3607.5,4791C2960.38,4791 2435,4265.62 2435,3618.5C2435,2971.38 2960.38,2446 3607.5,2446L3607.5,2915C3230.013,2915 2904,3241.013 2904,3618.5C2904,3995.987 3230.013,4322 3607.5,4322L3607.5,4791Z" style="fill:rgb(212,180,104);"/>
            </g>
            <g transform="matrix(0,-0.426269,0.426802,0,-793.958082,2437.964179)">
                <path d="M3607.5,4791C2960.38,4791 2435,4265.62 2435,3618.5C2435,2971.38 2960.38,2446 3607.5,2446L3607.5,2915C3230.013,2915 2904,3241.013 2904,3618.5C2904,3995.987 3230.013,4322 3607.5,4322L3607.5,4791Z" style="fill:rgb(212,180,104);"/>
            </g>
            <g transform="matrix(1.195219,0,0,1.195219,-6382.47012,-3787.848606)">
                <circle cx="6720.5" cy="4340.5" r="125.5" style="fill:rgb(166,136,48);"/>
            </g>
            <g transform="matrix(1.195219,0,0,1.195219,-7082.47012,-3637.848606)">
                <circle cx="6720.5" cy="4340.5" r="125.5" style="fill:rgb(166,136,48);"/>
            </g>
            <g transform="matrix(1.195219,0,0,1.195219,-7282.47012,-4287.928606)">
                <circle cx="6720.5" cy="4340.5" r="125.5" style="fill:rgb(166,136,48);"/>
            </g>
            <g transform="matrix(1.195219,0,0,1.195219,-6682.47012,-4837.848606)">
                <circle cx="6720.5" cy="4340.5" r="125.5" style="fill:rgb(166,136,48);"/>
            </g>
        </g>
    </g>
</svg>
