<?xml version="1.0" encoding="UTF-8" standalone="no"?>
<!DOCTYPE svg PUBLIC "-//W3C//DTD SVG 1.1//EN" "http://www.w3.org/Graphics/SVG/1.1/DTD/svg11.dtd">
<svg width="100%" height="100%" viewBox="0 0 3600 1000" version="1.1" xmlns="http://www.w3.org/2000/svg" xmlns:xlink="http://www.w3.org/1999/xlink" xml:space="preserve" xmlns:serif="http://www.serif.com/" style="fill-rule:evenodd;clip-rule:evenodd;stroke-linejoin:round;stroke-miterlimit:2;">
    <g transform="matrix(0.5875,0,0,0.588235,-146.875,-117.647059)">
        <g transform="matrix(0,-0.41177,0.426802,0,-194.809146,1852.659275)">
            <path d="M3607.5,4791C2960.38,4791 2435,4265.62 2435,3618.5C2435,2971.38 2960.38,2446 3607.5,2446L3607.5,2915C3230.013,2915 2904,3241.013 2904,3618.5C2904,3995.987 3230.013,4322 3607.5,4322L3607.5,4791Z" style="fill:rgb(212,180,104);"/>
        </g>
        <g transform="matrix(0.426802,0,0,0.426269,110.736742,-142.253134)">
            <path d="M3607.5,4791C2960.38,4791 2435,4265.62 2435,3618.5C2435,2971.38 2960.38,2446 3607.5,2446L3607.5,2915C3230.013,2915 2904,3241.013 2904,3618.5C2904,3995.987 3230.013,4322 3607.5,4322L3607.5,4791Z" style="fill:rgb(212,180,104);"/>
        </g>
        <g transform="matrix(0,-0.426269,0.426802,0,-793.958082,2437.964179)">
            <path d="M3607.5,4791C2960.38,4791 2435,4265.62 2435,3618.5C2435,2971.38 2960.38,2446 3607.5,2446L3607.5,2915C3230.013,2915 2904,3241.013 2904,3618.5C2904,3995.987 3230.013,4322 3607.5,4322L3607.5,4791Z" style="fill:rgb(212,180,104);"/>
        </g>
        <g transform="matrix(1.195219,0,0,1.195219,-6382.47012,-3787.848606)">
            <circle cx="6720.5" cy="4340.5" r="125.5" style="fill:rgb(166,136,48);"/>
        </g>
        <g transform="matrix(1.195219,0,0,1.195219,-7082.47012,-3637.848606)">
            <circle cx="6720.5" cy="4340.5" r="125.5" style="fill:rgb(166,136,48);"/>
        </g>
        <g transform="matrix(1.195219,0,0,1.195219,-7282.47012,-4287.928606)">
            <circle cx="6720.5" cy="4340.5" r="125.5" style="fill:rgb(166,136,48);"/>
        </g>
        <g transform="matrix(1.195219,0,0,1.195219,-6682.47012,-4837.848606)">
            <circle cx="6720.5" cy="4340.5" r="125.5" style="fill:rgb(166,136,48);"/>
        </g>
    </g>
    <g transform="matrix(2.031255,0,0,2.031255,-1857.330682,-259.435051)">
        <g transform="matrix(410.255446,0,0,410.255446,1391.481752,517.464245)">
            <path d="M0.384,0.013C0.337,0.013 0.292,0.004 0.251,-0.015C0.209,-0.034 0.172,-0.06 0.141,-0.093C0.109,-0.127 0.085,-0.165 0.067,-0.209C0.049,-0.253 0.04,-0.3 0.04,-0.35C0.04,-0.4 0.049,-0.447 0.067,-0.491C0.085,-0.535 0.109,-0.574 0.141,-0.607C0.172,-0.64 0.209,-0.666 0.251,-0.685C0.292,-0.704 0.337,-0.713 0.384,-0.713C0.441,-0.713 0.493,-0.7 0.54,-0.674C0.588,-0.647 0.628,-0.612 0.659,-0.569L0.566,-0.519C0.545,-0.546 0.518,-0.568 0.486,-0.585C0.454,-0.601 0.42,-0.609 0.384,-0.609C0.351,-0.609 0.319,-0.602 0.29,-0.589C0.261,-0.575 0.236,-0.556 0.214,-0.533C0.192,-0.509 0.175,-0.481 0.162,-0.45C0.15,-0.419 0.144,-0.385 0.144,-0.35C0.144,-0.314 0.15,-0.281 0.163,-0.25C0.175,-0.218 0.192,-0.191 0.214,-0.167C0.236,-0.143 0.262,-0.125 0.291,-0.111C0.32,-0.098 0.351,-0.091 0.384,-0.091C0.421,-0.091 0.455,-0.099 0.487,-0.116C0.519,-0.132 0.545,-0.154 0.566,-0.181L0.659,-0.131C0.628,-0.087 0.588,-0.053 0.54,-0.026C0.493,-0 0.441,0.013 0.384,0.013Z" style="fill:rgb(212,180,104);fill-rule:nonzero;"/>
        </g>
        <g transform="matrix(410.255446,0,0,410.255446,1662.250346,517.464245)">
            <path d="M0.28,0.013C0.234,0.013 0.192,0.001 0.154,-0.022C0.116,-0.046 0.086,-0.078 0.064,-0.118C0.041,-0.158 0.03,-0.202 0.03,-0.25C0.03,-0.287 0.036,-0.321 0.05,-0.353C0.062,-0.385 0.08,-0.413 0.103,-0.437C0.126,-0.461 0.153,-0.48 0.183,-0.493C0.213,-0.507 0.246,-0.514 0.28,-0.514C0.326,-0.514 0.368,-0.502 0.406,-0.479C0.444,-0.455 0.474,-0.423 0.496,-0.383C0.519,-0.343 0.53,-0.299 0.53,-0.25C0.53,-0.214 0.523,-0.18 0.511,-0.148C0.498,-0.116 0.48,-0.088 0.457,-0.064C0.434,-0.04 0.407,-0.021 0.377,-0.007C0.347,0.006 0.315,0.013 0.28,0.013ZM0.28,-0.091C0.308,-0.091 0.332,-0.098 0.355,-0.113C0.377,-0.128 0.394,-0.147 0.407,-0.171C0.42,-0.195 0.426,-0.222 0.426,-0.25C0.426,-0.279 0.419,-0.306 0.406,-0.33C0.393,-0.354 0.376,-0.374 0.354,-0.388C0.332,-0.403 0.307,-0.41 0.28,-0.41C0.253,-0.41 0.228,-0.403 0.206,-0.388C0.184,-0.373 0.166,-0.354 0.153,-0.33C0.14,-0.305 0.134,-0.279 0.134,-0.25C0.134,-0.22 0.141,-0.193 0.154,-0.169C0.167,-0.145 0.185,-0.126 0.207,-0.112C0.229,-0.098 0.254,-0.091 0.28,-0.091Z" style="fill:rgb(212,180,104);fill-rule:nonzero;"/>
        </g>
        <g transform="matrix(410.255446,0,0,410.255446,1882.967776,517.464245)">
            <path d="M0.324,-0.396L0.219,-0.396L0.219,-0L0.115,-0L0.115,-0.396L0.035,-0.396L0.035,-0.5L0.115,-0.5L0.115,-0.657L0.219,-0.657L0.219,-0.5L0.324,-0.5L0.324,-0.396Z" style="fill:rgb(212,180,104);fill-rule:nonzero;"/>
        </g>
        <g transform="matrix(410.255446,0,0,410.255446,2018.966856,517.464245)">
            <path d="M0.28,0.013C0.234,0.013 0.192,0.001 0.154,-0.022C0.116,-0.046 0.086,-0.078 0.064,-0.118C0.041,-0.158 0.03,-0.202 0.03,-0.25C0.03,-0.287 0.036,-0.321 0.05,-0.353C0.062,-0.385 0.08,-0.413 0.103,-0.437C0.126,-0.461 0.153,-0.48 0.183,-0.493C0.213,-0.507 0.246,-0.514 0.28,-0.514C0.318,-0.514 0.353,-0.506 0.385,-0.49C0.417,-0.474 0.445,-0.452 0.467,-0.425C0.49,-0.397 0.507,-0.365 0.517,-0.329C0.528,-0.292 0.531,-0.254 0.527,-0.214L0.141,-0.214C0.146,-0.191 0.154,-0.17 0.167,-0.151C0.179,-0.133 0.195,-0.118 0.215,-0.108C0.234,-0.097 0.256,-0.091 0.28,-0.091C0.305,-0.091 0.328,-0.097 0.349,-0.11C0.37,-0.123 0.387,-0.14 0.4,-0.163L0.506,-0.138C0.486,-0.094 0.456,-0.057 0.416,-0.029C0.375,-0.001 0.33,0.013 0.28,0.013ZM0.138,-0.293L0.422,-0.293C0.419,-0.317 0.41,-0.339 0.397,-0.358C0.383,-0.378 0.367,-0.393 0.346,-0.405C0.326,-0.416 0.304,-0.422 0.28,-0.422C0.256,-0.422 0.234,-0.417 0.214,-0.405C0.194,-0.394 0.177,-0.378 0.164,-0.359C0.151,-0.339 0.142,-0.317 0.138,-0.293Z" style="fill:rgb(212,180,104);fill-rule:nonzero;"/>
        </g>
        <g transform="matrix(410.255446,0,0,410.255446,2240.561162,517.464245)">
            <path d="M0.06,-0L0.06,-0.5L0.164,-0.5L0.164,-0.447C0.181,-0.468 0.203,-0.484 0.228,-0.496C0.253,-0.508 0.281,-0.514 0.31,-0.514C0.329,-0.514 0.347,-0.511 0.366,-0.506L0.324,-0.402C0.311,-0.406 0.298,-0.409 0.285,-0.409C0.263,-0.409 0.243,-0.403 0.224,-0.393C0.206,-0.382 0.191,-0.367 0.18,-0.349C0.17,-0.331 0.164,-0.31 0.164,-0.288L0.164,-0L0.06,-0Z" style="fill:rgb(212,180,104);fill-rule:nonzero;"/>
        </g>
        <g transform="matrix(410.255446,0,0,410.255446,2385.610826,517.464245)">
            <path d="M0.06,-0.5L0.164,-0.5L0.164,-0L0.06,-0L0.06,-0.5ZM0.113,-0.573C0.097,-0.573 0.084,-0.578 0.073,-0.588C0.062,-0.598 0.057,-0.611 0.057,-0.627C0.057,-0.642 0.062,-0.655 0.073,-0.666C0.084,-0.676 0.097,-0.682 0.113,-0.681C0.128,-0.682 0.141,-0.676 0.151,-0.666C0.162,-0.655 0.168,-0.642 0.168,-0.627C0.168,-0.611 0.162,-0.598 0.152,-0.588C0.141,-0.578 0.128,-0.573 0.113,-0.573Z" style="fill:rgb(212,180,104);fill-rule:nonzero;"/>
        </g>
        <g transform="matrix(410.255446,0,0,410.255446,2469.710789,517.464245)">
            <path d="M0.28,0.013C0.234,0.013 0.192,0.001 0.154,-0.022C0.116,-0.046 0.086,-0.078 0.064,-0.118C0.041,-0.158 0.03,-0.202 0.03,-0.25C0.03,-0.287 0.036,-0.321 0.05,-0.353C0.062,-0.385 0.08,-0.413 0.103,-0.437C0.126,-0.461 0.153,-0.48 0.183,-0.493C0.213,-0.507 0.246,-0.514 0.28,-0.514C0.318,-0.514 0.353,-0.506 0.385,-0.49C0.417,-0.474 0.445,-0.452 0.467,-0.425C0.49,-0.397 0.507,-0.365 0.517,-0.329C0.528,-0.292 0.531,-0.254 0.527,-0.214L0.141,-0.214C0.146,-0.191 0.154,-0.17 0.167,-0.151C0.179,-0.133 0.195,-0.118 0.215,-0.108C0.234,-0.097 0.256,-0.091 0.28,-0.091C0.305,-0.091 0.328,-0.097 0.349,-0.11C0.37,-0.123 0.387,-0.14 0.4,-0.163L0.506,-0.138C0.486,-0.094 0.456,-0.057 0.416,-0.029C0.375,-0.001 0.33,0.013 0.28,0.013ZM0.138,-0.293L0.422,-0.293C0.419,-0.317 0.41,-0.339 0.397,-0.358C0.383,-0.378 0.367,-0.393 0.346,-0.405C0.326,-0.416 0.304,-0.422 0.28,-0.422C0.256,-0.422 0.234,-0.417 0.214,-0.405C0.194,-0.394 0.177,-0.378 0.164,-0.359C0.151,-0.339 0.142,-0.317 0.138,-0.293Z" style="fill:rgb(212,180,104);fill-rule:nonzero;"/>
        </g>
        <g transform="matrix(410.255446,0,0,410.255446,2699.099948,517.464245)">
        </g>
    </g>
</svg>
