<?xml version="1.0" encoding="UTF-8" standalone="no"?>
<!DOCTYPE svg PUBLIC "-//W3C//DTD SVG 1.1//EN" "http://www.w3.org/Graphics/SVG/1.1/DTD/svg11.dtd">
<svg width="100%" height="100%" viewBox="0 0 3600 1000" version="1.1" xmlns="http://www.w3.org/2000/svg" xmlns:xlink="http://www.w3.org/1999/xlink" xml:space="preserve" xmlns:serif="http://www.serif.com/" style="fill-rule:evenodd;clip-rule:evenodd;stroke-linejoin:round;stroke-miterlimit:2;">
    <g transform="matrix(1.003624,0,0,0.974659,8.028994,-3.898635)">
        <rect x="-8" y="4" width="3587" height="1026"/>
    </g>
    <g transform="matrix(0.555,0,0,0.555556,-138.75,-55.555556)">
        <g transform="matrix(0,-0.426439,0.426439,0,-193.070362,1888.379531)">
            <path d="M3607.5,4791C2960.38,4791 2435,4265.62 2435,3618.5C2435,2971.38 2960.38,2446 3607.5,2446L3607.5,2915C3230.013,2915 2904,3241.013 2904,3618.5C2904,3995.987 3230.013,4322 3607.5,4322L3607.5,4791Z" style="fill:rgb(212,180,104);"/>
        </g>
        <g transform="matrix(0.426439,0,0,0.426439,111.620469,-143.070362)">
            <path d="M3607.5,4791C2960.38,4791 2435,4265.62 2435,3618.5C2435,2971.38 2960.38,2446 3607.5,2446L3607.5,2915C3230.013,2915 2904,3241.013 2904,3618.5C2904,3995.987 3230.013,4322 3607.5,4322L3607.5,4791Z" style="fill:rgb(212,180,104);"/>
        </g>
        <g transform="matrix(0.426439,0,-0,0.426439,-588.379531,-943.070362)">
            <path d="M3607.5,4791C2960.38,4791 2435,4265.62 2435,3618.5C2435,2971.38 2960.38,2446 3607.5,2446L3607.5,2915C3230.013,2915 2904,3241.013 2904,3618.5C2904,3995.987 3230.013,4322 3607.5,4322L3607.5,4791Z" style="fill:rgb(212,180,104);"/>
        </g>
        <g transform="matrix(0,-0.426439,0.426439,0,-793.070362,2438.379531)">
            <path d="M3607.5,4791C2960.38,4791 2435,4265.62 2435,3618.5C2435,2971.38 2960.38,2446 3607.5,2446L3607.5,2915C3230.013,2915 2904,3241.013 2904,3618.5C2904,3995.987 3230.013,4322 3607.5,4322L3607.5,4791Z" style="fill:rgb(212,180,104);"/>
        </g>
        <g transform="matrix(1.195219,0,0,1.195219,-6382.47012,-3787.848606)">
            <circle cx="6720.5" cy="4340.5" r="125.5" style="fill:rgb(166,136,48);"/>
        </g>
        <g transform="matrix(1.195219,0,0,1.195219,-7082.47012,-3637.848606)">
            <circle cx="6720.5" cy="4340.5" r="125.5" style="fill:rgb(166,136,48);"/>
        </g>
        <g transform="matrix(1.195219,0,0,1.195219,-6682.47012,-4837.848606)">
            <circle cx="6720.5" cy="4340.5" r="125.5" style="fill:rgb(166,136,48);"/>
        </g>
    </g>
    <g transform="matrix(2.031255,0,0,2.031255,-1857.330682,-259.435051)">
        <g transform="matrix(410.255446,0,0,410.255446,1391.481752,517.464245)">
            <path d="M0.384,0.013C0.337,0.013 0.292,0.004 0.251,-0.015C0.209,-0.034 0.172,-0.06 0.141,-0.093C0.109,-0.127 0.085,-0.165 0.067,-0.209C0.049,-0.253 0.04,-0.3 0.04,-0.35C0.04,-0.4 0.049,-0.447 0.067,-0.491C0.085,-0.535 0.109,-0.574 0.141,-0.607C0.172,-0.64 0.209,-0.666 0.251,-0.685C0.292,-0.704 0.337,-0.713 0.384,-0.713C0.441,-0.713 0.493,-0.7 0.54,-0.674C0.588,-0.647 0.628,-0.612 0.659,-0.569L0.566,-0.519C0.545,-0.546 0.518,-0.568 0.486,-0.585C0.454,-0.601 0.42,-0.609 0.384,-0.609C0.351,-0.609 0.319,-0.602 0.29,-0.589C0.261,-0.575 0.236,-0.556 0.214,-0.533C0.192,-0.509 0.175,-0.481 0.162,-0.45C0.15,-0.419 0.144,-0.385 0.144,-0.35C0.144,-0.314 0.15,-0.281 0.163,-0.25C0.175,-0.218 0.192,-0.191 0.214,-0.167C0.236,-0.143 0.262,-0.125 0.291,-0.111C0.32,-0.098 0.351,-0.091 0.384,-0.091C0.421,-0.091 0.455,-0.099 0.487,-0.116C0.519,-0.132 0.545,-0.154 0.566,-0.181L0.659,-0.131C0.628,-0.087 0.588,-0.053 0.54,-0.026C0.493,-0 0.441,0.013 0.384,0.013Z" style="fill:rgb(212,180,104);fill-rule:nonzero;"/>
        </g>
        <g transform="matrix(410.255446,0,0,410.255446,1662.250346,517.464245)">
            <path d="M0.28,0.013C0.234,0.013 0.192,0.001 0.154,-0.022C0.116,-0.046 0.086,-0.078 0.064,-0.118C0.041,-0.158 0.03,-0.202 0.03,-0.25C0.03,-0.287 0.036,-0.321 0.05,-0.353C0.062,-0.385 0.08,-0.413 0.103,-0.437C0.126,-0.461 0.153,-0.48 0.183,-0.493C0.213,-0.507 0.246,-0.514 0.28,-0.514C0.326,-0.514 0.368,-0.502 0.406,-0.479C0.444,-0.455 0.474,-0.423 0.496,-0.383C0.519,-0.343 0.53,-0.299 0.53,-0.25C0.53,-0.214 0.523,-0.18 0.511,-0.148C0.498,-0.116 0.48,-0.088 0.457,-0.064C0.434,-0.04 0.407,-0.021 0.377,-0.007C0.347,0.006 0.315,0.013 0.28,0.013ZM0.28,-0.091C0.308,-0.091 0.332,-0.098 0.355,-0.113C0.377,-0.128 0.394,-0.147 0.407,-0.171C0.42,-0.195 0.426,-0.222 0.426,-0.25C0.426,-0.279 0.419,-0.306 0.406,-0.33C0.393,-0.354 0.376,-0.374 0.354,-0.388C0.332,-0.403 0.307,-0.41 0.28,-0.41C0.253,-0.41 0.228,-0.403 0.206,-0.388C0.184,-0.373 0.166,-0.354 0.153,-0.33C0.14,-0.305 0.134,-0.279 0.134,-0.25C0.134,-0.22 0.141,-0.193 0.154,-0.169C0.167,-0.145 0.185,-0.126 0.207,-0.112C0.229,-0.098 0.254,-0.091 0.28,-0.091Z" style="fill:rgb(212,180,104);fill-rule:nonzero;"/>
        </g>
        <g transform="matrix(410.255446,0,0,410.255446,1882.967776,517.464245)">
            <path d="M0.324,-0.396L0.219,-0.396L0.219,-0L0.115,-0L0.115,-0.396L0.035,-0.396L0.035,-0.5L0.115,-0.5L0.115,-0.657L0.219,-0.657L0.219,-0.5L0.324,-0.5L0.324,-0.396Z" style="fill:rgb(212,180,104);fill-rule:nonzero;"/>
        </g>
        <g transform="matrix(410.255446,0,0,410.255446,2018.966856,517.464245)">
            <path d="M0.28,0.013C0.234,0.013 0.192,0.001 0.154,-0.022C0.116,-0.046 0.086,-0.078 0.064,-0.118C0.041,-0.158 0.03,-0.202 0.03,-0.25C0.03,-0.287 0.036,-0.321 0.05,-0.353C0.062,-0.385 0.08,-0.413 0.103,-0.437C0.126,-0.461 0.153,-0.48 0.183,-0.493C0.213,-0.507 0.246,-0.514 0.28,-0.514C0.318,-0.514 0.353,-0.506 0.385,-0.49C0.417,-0.474 0.445,-0.452 0.467,-0.425C0.49,-0.397 0.507,-0.365 0.517,-0.329C0.528,-0.292 0.531,-0.254 0.527,-0.214L0.141,-0.214C0.146,-0.191 0.154,-0.17 0.167,-0.151C0.179,-0.133 0.195,-0.118 0.215,-0.108C0.234,-0.097 0.256,-0.091 0.28,-0.091C0.305,-0.091 0.328,-0.097 0.349,-0.11C0.37,-0.123 0.387,-0.14 0.4,-0.163L0.506,-0.138C0.486,-0.094 0.456,-0.057 0.416,-0.029C0.375,-0.001 0.33,0.013 0.28,0.013ZM0.138,-0.293L0.422,-0.293C0.419,-0.317 0.41,-0.339 0.397,-0.358C0.383,-0.378 0.367,-0.393 0.346,-0.405C0.326,-0.416 0.304,-0.422 0.28,-0.422C0.256,-0.422 0.234,-0.417 0.214,-0.405C0.194,-0.394 0.177,-0.378 0.164,-0.359C0.151,-0.339 0.142,-0.317 0.138,-0.293Z" style="fill:rgb(212,180,104);fill-rule:nonzero;"/>
        </g>
        <g transform="matrix(410.255446,0,0,410.255446,2240.561162,517.464245)">
            <path d="M0.06,-0L0.06,-0.5L0.164,-0.5L0.164,-0.447C0.181,-0.468 0.203,-0.484 0.228,-0.496C0.253,-0.508 0.281,-0.514 0.31,-0.514C0.329,-0.514 0.347,-0.511 0.366,-0.506L0.324,-0.402C0.311,-0.406 0.298,-0.409 0.285,-0.409C0.263,-0.409 0.243,-0.403 0.224,-0.393C0.206,-0.382 0.191,-0.367 0.18,-0.349C0.17,-0.331 0.164,-0.31 0.164,-0.288L0.164,-0L0.06,-0Z" style="fill:rgb(212,180,104);fill-rule:nonzero;"/>
        </g>
        <g transform="matrix(410.255446,0,0,410.255446,2385.610826,517.464245)">
            <path d="M0.06,-0.5L0.164,-0.5L0.164,-0L0.06,-0L0.06,-0.5ZM0.113,-0.573C0.097,-0.573 0.084,-0.578 0.073,-0.588C0.062,-0.598 0.057,-0.611 0.057,-0.627C0.057,-0.642 0.062,-0.655 0.073,-0.666C0.084,-0.676 0.097,-0.682 0.113,-0.681C0.128,-0.682 0.141,-0.676 0.151,-0.666C0.162,-0.655 0.168,-0.642 0.168,-0.627C0.168,-0.611 0.162,-0.598 0.152,-0.588C0.141,-0.578 0.128,-0.573 0.113,-0.573Z" style="fill:rgb(212,180,104);fill-rule:nonzero;"/>
        </g>
        <g transform="matrix(410.255446,0,0,410.255446,2469.710789,517.464245)">
            <path d="M0.28,0.013C0.234,0.013 0.192,0.001 0.154,-0.022C0.116,-0.046 0.086,-0.078 0.064,-0.118C0.041,-0.158 0.03,-0.202 0.03,-0.25C0.03,-0.287 0.036,-0.321 0.05,-0.353C0.062,-0.385 0.08,-0.413 0.103,-0.437C0.126,-0.461 0.153,-0.48 0.183,-0.493C0.213,-0.507 0.246,-0.514 0.28,-0.514C0.318,-0.514 0.353,-0.506 0.385,-0.49C0.417,-0.474 0.445,-0.452 0.467,-0.425C0.49,-0.397 0.507,-0.365 0.517,-0.329C0.528,-0.292 0.531,-0.254 0.527,-0.214L0.141,-0.214C0.146,-0.191 0.154,-0.17 0.167,-0.151C0.179,-0.133 0.195,-0.118 0.215,-0.108C0.234,-0.097 0.256,-0.091 0.28,-0.091C0.305,-0.091 0.328,-0.097 0.349,-0.11C0.37,-0.123 0.387,-0.14 0.4,-0.163L0.506,-0.138C0.486,-0.094 0.456,-0.057 0.416,-0.029C0.375,-0.001 0.33,0.013 0.28,0.013ZM0.138,-0.293L0.422,-0.293C0.419,-0.317 0.41,-0.339 0.397,-0.358C0.383,-0.378 0.367,-0.393 0.346,-0.405C0.326,-0.416 0.304,-0.422 0.28,-0.422C0.256,-0.422 0.234,-0.417 0.214,-0.405C0.194,-0.394 0.177,-0.378 0.164,-0.359C0.151,-0.339 0.142,-0.317 0.138,-0.293Z" style="fill:rgb(212,180,104);fill-rule:nonzero;"/>
        </g>
        <g transform="matrix(410.255446,0,0,410.255446,2699.099948,517.464245)">
        </g>
    </g>
    <g transform="matrix(1,0,0,1,232.828349,72.462223)">
        <g transform="matrix(150,0,0,150,1149.401088,894.204443)">
            <path d="M0.06,-0L0.196,-0.7L0.26,-0.7L0.449,-0.203L0.638,-0.7L0.702,-0.7L0.838,-0L0.752,-0L0.654,-0.508L0.476,-0.038L0.421,-0.038L0.244,-0.508L0.145,-0L0.06,-0Z" style="fill:rgb(212,180,104);fill-rule:nonzero;"/>
        </g>
        <g transform="matrix(150,0,0,150,1276.085322,894.204443)">
            <path d="M0.462,-0.5L0.546,-0.5L0.546,-0L0.462,-0L0.459,-0.085C0.443,-0.055 0.421,-0.032 0.394,-0.014C0.366,0.004 0.334,0.013 0.296,0.013C0.259,0.013 0.224,0.006 0.192,-0.008C0.16,-0.022 0.132,-0.041 0.108,-0.065C0.083,-0.09 0.064,-0.118 0.051,-0.15C0.037,-0.182 0.03,-0.217 0.03,-0.253C0.03,-0.289 0.037,-0.323 0.05,-0.355C0.064,-0.386 0.082,-0.414 0.106,-0.438C0.13,-0.462 0.157,-0.48 0.189,-0.494C0.22,-0.507 0.254,-0.514 0.29,-0.514C0.329,-0.514 0.363,-0.505 0.393,-0.486C0.423,-0.468 0.447,-0.444 0.465,-0.414L0.462,-0.5ZM0.294,-0.068C0.327,-0.068 0.355,-0.076 0.38,-0.093C0.404,-0.109 0.422,-0.131 0.436,-0.159C0.449,-0.186 0.455,-0.217 0.455,-0.25C0.455,-0.284 0.449,-0.315 0.435,-0.342C0.422,-0.37 0.403,-0.392 0.379,-0.408C0.355,-0.424 0.327,-0.432 0.294,-0.432C0.261,-0.432 0.231,-0.424 0.204,-0.408C0.177,-0.391 0.156,-0.369 0.14,-0.342C0.124,-0.314 0.116,-0.284 0.116,-0.25C0.116,-0.216 0.124,-0.186 0.14,-0.158C0.157,-0.131 0.178,-0.109 0.205,-0.093C0.232,-0.076 0.262,-0.068 0.294,-0.068Z" style="fill:rgb(212,180,104);fill-rule:nonzero;"/>
        </g>
        <g transform="matrix(150,0,0,150,1362.47027,894.204443)">
            <path d="M0.144,0.25L0.06,0.25L0.06,-0.5L0.144,-0.5L0.144,-0.415C0.161,-0.444 0.184,-0.468 0.212,-0.486C0.24,-0.504 0.274,-0.513 0.313,-0.513C0.349,-0.513 0.383,-0.506 0.415,-0.492C0.447,-0.479 0.475,-0.46 0.499,-0.436C0.523,-0.412 0.542,-0.384 0.555,-0.352C0.569,-0.32 0.576,-0.286 0.576,-0.25C0.576,-0.214 0.569,-0.179 0.555,-0.147C0.542,-0.116 0.523,-0.087 0.499,-0.063C0.475,-0.039 0.447,-0.02 0.415,-0.007C0.383,0.007 0.349,0.014 0.313,0.014C0.274,0.014 0.24,0.005 0.212,-0.013C0.184,-0.032 0.161,-0.055 0.144,-0.084L0.144,0.25ZM0.312,-0.432C0.28,-0.432 0.251,-0.424 0.227,-0.407C0.203,-0.391 0.184,-0.369 0.171,-0.342C0.157,-0.314 0.151,-0.284 0.151,-0.25C0.151,-0.217 0.157,-0.186 0.171,-0.159C0.184,-0.131 0.202,-0.109 0.227,-0.093C0.251,-0.076 0.279,-0.068 0.312,-0.068C0.344,-0.068 0.374,-0.076 0.401,-0.092C0.428,-0.108 0.45,-0.13 0.466,-0.158C0.482,-0.185 0.491,-0.216 0.491,-0.25C0.491,-0.283 0.483,-0.314 0.466,-0.341C0.45,-0.369 0.429,-0.391 0.402,-0.407C0.375,-0.423 0.345,-0.432 0.312,-0.432Z" style="fill:rgb(212,180,104);fill-rule:nonzero;"/>
        </g>
        <g transform="matrix(150,0,0,150,1451.855219,894.204443)">
        </g>
        <g transform="matrix(150,0,0,150,1486.355219,894.204443)">
            <path d="M0.403,-0.5L0.492,-0.5L0.218,0.25L0.129,0.25L0.22,-0L0.04,-0.5L0.132,-0.5L0.262,-0.115L0.403,-0.5Z" style="fill:rgb(212,180,104);fill-rule:nonzero;"/>
        </g>
        <g transform="matrix(150,0,0,150,1559.350686,894.204443)">
            <path d="M0.28,0.013C0.234,0.013 0.192,0.001 0.154,-0.022C0.116,-0.046 0.086,-0.078 0.064,-0.118C0.041,-0.158 0.03,-0.202 0.03,-0.25C0.03,-0.287 0.036,-0.321 0.05,-0.353C0.062,-0.385 0.08,-0.413 0.103,-0.437C0.126,-0.461 0.153,-0.48 0.183,-0.493C0.213,-0.507 0.246,-0.514 0.28,-0.514C0.326,-0.514 0.368,-0.502 0.406,-0.479C0.444,-0.455 0.474,-0.423 0.496,-0.383C0.519,-0.343 0.53,-0.299 0.53,-0.25C0.53,-0.214 0.523,-0.18 0.511,-0.148C0.498,-0.116 0.48,-0.088 0.457,-0.064C0.434,-0.04 0.407,-0.021 0.377,-0.007C0.347,0.006 0.315,0.013 0.28,0.013ZM0.28,-0.071C0.311,-0.071 0.34,-0.079 0.365,-0.096C0.39,-0.112 0.41,-0.134 0.424,-0.161C0.439,-0.189 0.446,-0.218 0.446,-0.25C0.446,-0.283 0.439,-0.313 0.424,-0.34C0.409,-0.367 0.389,-0.389 0.364,-0.405C0.339,-0.422 0.311,-0.43 0.28,-0.43C0.249,-0.43 0.22,-0.422 0.195,-0.405C0.17,-0.389 0.151,-0.367 0.136,-0.34C0.121,-0.312 0.114,-0.282 0.114,-0.25C0.114,-0.217 0.122,-0.186 0.137,-0.159C0.152,-0.132 0.172,-0.111 0.197,-0.095C0.222,-0.079 0.25,-0.071 0.28,-0.071Z" style="fill:rgb(212,180,104);fill-rule:nonzero;"/>
        </g>
        <g transform="matrix(150,0,0,150,1639.825686,894.204443)">
            <path d="M0.04,-0.19L0.04,-0.5L0.124,-0.5L0.124,-0.209C0.124,-0.183 0.13,-0.16 0.143,-0.14C0.155,-0.119 0.171,-0.103 0.192,-0.09C0.213,-0.078 0.236,-0.072 0.261,-0.072C0.286,-0.072 0.309,-0.078 0.33,-0.09C0.35,-0.103 0.367,-0.119 0.379,-0.14C0.391,-0.16 0.397,-0.183 0.397,-0.209L0.397,-0.5L0.481,-0.5L0.482,-0L0.398,-0L0.397,-0.063C0.38,-0.04 0.358,-0.021 0.331,-0.008C0.304,0.006 0.274,0.013 0.243,0.013C0.205,0.013 0.171,0.004 0.141,-0.014C0.11,-0.032 0.085,-0.057 0.067,-0.088C0.049,-0.118 0.04,-0.152 0.04,-0.19Z" style="fill:rgb(212,180,104);fill-rule:nonzero;"/>
        </g>
        <g transform="matrix(150,0,0,150,1716.604999,894.204443)">
            <path d="M0.06,-0L0.06,-0.5L0.144,-0.5L0.144,-0.438C0.162,-0.461 0.184,-0.48 0.211,-0.493C0.238,-0.507 0.267,-0.514 0.299,-0.514C0.318,-0.514 0.337,-0.511 0.355,-0.506L0.321,-0.422C0.308,-0.427 0.294,-0.429 0.281,-0.429C0.256,-0.429 0.233,-0.423 0.212,-0.411C0.191,-0.398 0.175,-0.382 0.163,-0.361C0.15,-0.341 0.144,-0.318 0.144,-0.292L0.144,-0L0.06,-0Z" style="fill:rgb(212,180,104);fill-rule:nonzero;"/>
        </g>
        <g transform="matrix(150,0,0,150,1769.845546,894.204443)">
        </g>
        <g transform="matrix(150,0,0,150,1804.345546,894.204443)">
            <path d="M0.144,0.25L0.06,0.25L0.06,-0.5L0.144,-0.5L0.144,-0.415C0.161,-0.444 0.184,-0.468 0.212,-0.486C0.24,-0.504 0.274,-0.513 0.313,-0.513C0.349,-0.513 0.383,-0.506 0.415,-0.492C0.447,-0.479 0.475,-0.46 0.499,-0.436C0.523,-0.412 0.542,-0.384 0.555,-0.352C0.569,-0.32 0.576,-0.286 0.576,-0.25C0.576,-0.214 0.569,-0.179 0.555,-0.147C0.542,-0.116 0.523,-0.087 0.499,-0.063C0.475,-0.039 0.447,-0.02 0.415,-0.007C0.383,0.007 0.349,0.014 0.313,0.014C0.274,0.014 0.24,0.005 0.212,-0.013C0.184,-0.032 0.161,-0.055 0.144,-0.084L0.144,0.25ZM0.312,-0.432C0.28,-0.432 0.251,-0.424 0.227,-0.407C0.203,-0.391 0.184,-0.369 0.171,-0.342C0.157,-0.314 0.151,-0.284 0.151,-0.25C0.151,-0.217 0.157,-0.186 0.171,-0.159C0.184,-0.131 0.202,-0.109 0.227,-0.093C0.251,-0.076 0.279,-0.068 0.312,-0.068C0.344,-0.068 0.374,-0.076 0.401,-0.092C0.428,-0.108 0.45,-0.13 0.466,-0.158C0.482,-0.185 0.491,-0.216 0.491,-0.25C0.491,-0.283 0.483,-0.314 0.466,-0.341C0.45,-0.369 0.429,-0.391 0.402,-0.407C0.375,-0.423 0.345,-0.432 0.312,-0.432Z" style="fill:rgb(212,180,104);fill-rule:nonzero;"/>
        </g>
        <g transform="matrix(150,0,0,150,1892.755495,894.204443)">
            <path d="M0.06,-0L0.06,-0.5L0.144,-0.5L0.144,-0.438C0.162,-0.461 0.184,-0.48 0.211,-0.493C0.238,-0.507 0.267,-0.514 0.299,-0.514C0.318,-0.514 0.337,-0.511 0.355,-0.506L0.321,-0.422C0.308,-0.427 0.294,-0.429 0.281,-0.429C0.256,-0.429 0.233,-0.423 0.212,-0.411C0.191,-0.398 0.175,-0.382 0.163,-0.361C0.15,-0.341 0.144,-0.318 0.144,-0.292L0.144,-0L0.06,-0Z" style="fill:rgb(212,180,104);fill-rule:nonzero;"/>
        </g>
        <g transform="matrix(150,0,0,150,1940.821042,894.204443)">
            <path d="M0.28,0.013C0.234,0.013 0.192,0.001 0.154,-0.022C0.116,-0.046 0.086,-0.078 0.064,-0.118C0.041,-0.158 0.03,-0.202 0.03,-0.25C0.03,-0.287 0.036,-0.321 0.05,-0.353C0.062,-0.385 0.08,-0.413 0.103,-0.437C0.126,-0.461 0.153,-0.48 0.183,-0.493C0.213,-0.507 0.246,-0.514 0.28,-0.514C0.326,-0.514 0.368,-0.502 0.406,-0.479C0.444,-0.455 0.474,-0.423 0.496,-0.383C0.519,-0.343 0.53,-0.299 0.53,-0.25C0.53,-0.214 0.523,-0.18 0.511,-0.148C0.498,-0.116 0.48,-0.088 0.457,-0.064C0.434,-0.04 0.407,-0.021 0.377,-0.007C0.347,0.006 0.315,0.013 0.28,0.013ZM0.28,-0.071C0.311,-0.071 0.34,-0.079 0.365,-0.096C0.39,-0.112 0.41,-0.134 0.424,-0.161C0.439,-0.189 0.446,-0.218 0.446,-0.25C0.446,-0.283 0.439,-0.313 0.424,-0.34C0.409,-0.367 0.389,-0.389 0.364,-0.405C0.339,-0.422 0.311,-0.43 0.28,-0.43C0.249,-0.43 0.22,-0.422 0.195,-0.405C0.17,-0.389 0.151,-0.367 0.136,-0.34C0.121,-0.312 0.114,-0.282 0.114,-0.25C0.114,-0.217 0.122,-0.186 0.137,-0.159C0.152,-0.132 0.172,-0.111 0.197,-0.095C0.222,-0.079 0.25,-0.071 0.28,-0.071Z" style="fill:rgb(212,180,104);fill-rule:nonzero;"/>
        </g>
        <g transform="matrix(150,0,0,150,2023.321042,894.204443)">
            <path d="M0.174,-0.624L0.174,-0.5L0.32,-0.5L0.32,-0.416L0.174,-0.416L0.174,-0L0.09,-0L0.09,-0.416L0.025,-0.416L0.025,-0.5L0.09,-0.5L0.09,-0.624C0.09,-0.649 0.096,-0.672 0.108,-0.693C0.121,-0.714 0.138,-0.731 0.159,-0.743C0.18,-0.756 0.203,-0.762 0.229,-0.762C0.247,-0.762 0.265,-0.758 0.283,-0.751C0.301,-0.743 0.316,-0.732 0.33,-0.717L0.27,-0.658C0.265,-0.664 0.259,-0.669 0.252,-0.673C0.244,-0.676 0.237,-0.678 0.229,-0.678C0.214,-0.678 0.201,-0.673 0.19,-0.662C0.179,-0.652 0.174,-0.639 0.174,-0.624Z" style="fill:rgb(212,180,104);fill-rule:nonzero;"/>
        </g>
        <g transform="matrix(150,0,0,150,2071.29283,894.204443)">
            <path d="M0.28,0.013C0.234,0.013 0.192,0.001 0.154,-0.022C0.116,-0.046 0.086,-0.078 0.064,-0.118C0.041,-0.158 0.03,-0.202 0.03,-0.25C0.03,-0.287 0.036,-0.321 0.05,-0.353C0.062,-0.385 0.08,-0.413 0.103,-0.437C0.126,-0.461 0.153,-0.48 0.183,-0.493C0.213,-0.507 0.246,-0.514 0.28,-0.514C0.318,-0.514 0.352,-0.506 0.384,-0.491C0.415,-0.476 0.442,-0.455 0.465,-0.428C0.487,-0.401 0.504,-0.37 0.515,-0.334C0.526,-0.298 0.531,-0.26 0.528,-0.219L0.119,-0.219C0.124,-0.191 0.133,-0.166 0.148,-0.144C0.162,-0.122 0.181,-0.104 0.204,-0.091C0.227,-0.078 0.252,-0.071 0.28,-0.071C0.31,-0.071 0.337,-0.079 0.362,-0.094C0.386,-0.11 0.406,-0.131 0.421,-0.158L0.506,-0.138C0.486,-0.094 0.456,-0.057 0.416,-0.029C0.375,-0.001 0.33,0.013 0.28,0.013ZM0.117,-0.285L0.443,-0.285C0.44,-0.313 0.431,-0.339 0.416,-0.362C0.401,-0.386 0.381,-0.404 0.358,-0.418C0.334,-0.432 0.308,-0.439 0.28,-0.439C0.252,-0.439 0.226,-0.432 0.203,-0.418C0.18,-0.405 0.16,-0.386 0.145,-0.363C0.13,-0.34 0.121,-0.314 0.117,-0.285Z" style="fill:rgb(212,180,104);fill-rule:nonzero;"/>
        </g>
        <g transform="matrix(150,0,0,150,2152.932203,894.204443)">
            <path d="M0.213,0.009C0.186,0.008 0.159,0.003 0.134,-0.006C0.108,-0.015 0.086,-0.028 0.067,-0.043C0.048,-0.059 0.034,-0.077 0.025,-0.098L0.097,-0.129C0.102,-0.118 0.111,-0.107 0.124,-0.097C0.137,-0.087 0.152,-0.079 0.169,-0.073C0.186,-0.067 0.203,-0.064 0.221,-0.064C0.239,-0.064 0.256,-0.067 0.272,-0.073C0.288,-0.078 0.301,-0.087 0.311,-0.098C0.321,-0.109 0.326,-0.122 0.326,-0.138C0.326,-0.155 0.321,-0.168 0.31,-0.177C0.299,-0.187 0.285,-0.194 0.268,-0.2C0.251,-0.205 0.234,-0.21 0.217,-0.215C0.182,-0.224 0.152,-0.235 0.124,-0.247C0.097,-0.259 0.076,-0.274 0.061,-0.293C0.045,-0.312 0.037,-0.336 0.037,-0.365C0.037,-0.396 0.046,-0.423 0.063,-0.446C0.08,-0.468 0.103,-0.486 0.131,-0.498C0.159,-0.511 0.189,-0.517 0.221,-0.517C0.261,-0.517 0.298,-0.508 0.331,-0.491C0.365,-0.474 0.39,-0.45 0.406,-0.421L0.339,-0.381C0.333,-0.393 0.324,-0.404 0.312,-0.413C0.301,-0.422 0.287,-0.429 0.272,-0.435C0.258,-0.44 0.242,-0.443 0.227,-0.443C0.207,-0.444 0.189,-0.441 0.172,-0.435C0.155,-0.43 0.142,-0.421 0.132,-0.41C0.122,-0.398 0.117,-0.384 0.117,-0.367C0.117,-0.35 0.122,-0.338 0.133,-0.329C0.143,-0.32 0.158,-0.314 0.175,-0.308C0.193,-0.303 0.212,-0.297 0.233,-0.291C0.263,-0.281 0.291,-0.27 0.317,-0.257C0.344,-0.244 0.365,-0.228 0.381,-0.209C0.398,-0.191 0.405,-0.167 0.405,-0.139C0.405,-0.108 0.396,-0.082 0.377,-0.059C0.359,-0.036 0.335,-0.019 0.306,-0.007C0.277,0.006 0.246,0.011 0.213,0.009Z" style="fill:rgb(212,180,104);fill-rule:nonzero;"/>
        </g>
        <g transform="matrix(150,0,0,150,2216.054064,894.204443)">
            <path d="M0.213,0.009C0.186,0.008 0.159,0.003 0.134,-0.006C0.108,-0.015 0.086,-0.028 0.067,-0.043C0.048,-0.059 0.034,-0.077 0.025,-0.098L0.097,-0.129C0.102,-0.118 0.111,-0.107 0.124,-0.097C0.137,-0.087 0.152,-0.079 0.169,-0.073C0.186,-0.067 0.203,-0.064 0.221,-0.064C0.239,-0.064 0.256,-0.067 0.272,-0.073C0.288,-0.078 0.301,-0.087 0.311,-0.098C0.321,-0.109 0.326,-0.122 0.326,-0.138C0.326,-0.155 0.321,-0.168 0.31,-0.177C0.299,-0.187 0.285,-0.194 0.268,-0.2C0.251,-0.205 0.234,-0.21 0.217,-0.215C0.182,-0.224 0.152,-0.235 0.124,-0.247C0.097,-0.259 0.076,-0.274 0.061,-0.293C0.045,-0.312 0.037,-0.336 0.037,-0.365C0.037,-0.396 0.046,-0.423 0.063,-0.446C0.08,-0.468 0.103,-0.486 0.131,-0.498C0.159,-0.511 0.189,-0.517 0.221,-0.517C0.261,-0.517 0.298,-0.508 0.331,-0.491C0.365,-0.474 0.39,-0.45 0.406,-0.421L0.339,-0.381C0.333,-0.393 0.324,-0.404 0.312,-0.413C0.301,-0.422 0.287,-0.429 0.272,-0.435C0.258,-0.44 0.242,-0.443 0.227,-0.443C0.207,-0.444 0.189,-0.441 0.172,-0.435C0.155,-0.43 0.142,-0.421 0.132,-0.41C0.122,-0.398 0.117,-0.384 0.117,-0.367C0.117,-0.35 0.122,-0.338 0.133,-0.329C0.143,-0.32 0.158,-0.314 0.175,-0.308C0.193,-0.303 0.212,-0.297 0.233,-0.291C0.263,-0.281 0.291,-0.27 0.317,-0.257C0.344,-0.244 0.365,-0.228 0.381,-0.209C0.398,-0.191 0.405,-0.167 0.405,-0.139C0.405,-0.108 0.396,-0.082 0.377,-0.059C0.359,-0.036 0.335,-0.019 0.306,-0.007C0.277,0.006 0.246,0.011 0.213,0.009Z" style="fill:rgb(212,180,104);fill-rule:nonzero;"/>
        </g>
        <g transform="matrix(150,0,0,150,2278.200925,894.204443)">
            <path d="M0.06,-0.5L0.144,-0.5L0.144,-0L0.06,-0L0.06,-0.5ZM0.103,-0.582C0.09,-0.582 0.079,-0.586 0.07,-0.595C0.06,-0.603 0.056,-0.614 0.056,-0.627C0.056,-0.64 0.06,-0.651 0.07,-0.659C0.079,-0.668 0.09,-0.672 0.103,-0.672C0.116,-0.672 0.127,-0.668 0.136,-0.659C0.144,-0.651 0.149,-0.64 0.149,-0.627C0.149,-0.614 0.145,-0.603 0.136,-0.595C0.127,-0.586 0.116,-0.582 0.103,-0.582Z" style="fill:rgb(212,180,104);fill-rule:nonzero;"/>
        </g>
        <g transform="matrix(150,0,0,150,2306.325779,894.204443)">
            <path d="M0.28,0.013C0.234,0.013 0.192,0.001 0.154,-0.022C0.116,-0.046 0.086,-0.078 0.064,-0.118C0.041,-0.158 0.03,-0.202 0.03,-0.25C0.03,-0.287 0.036,-0.321 0.05,-0.353C0.062,-0.385 0.08,-0.413 0.103,-0.437C0.126,-0.461 0.153,-0.48 0.183,-0.493C0.213,-0.507 0.246,-0.514 0.28,-0.514C0.326,-0.514 0.368,-0.502 0.406,-0.479C0.444,-0.455 0.474,-0.423 0.496,-0.383C0.519,-0.343 0.53,-0.299 0.53,-0.25C0.53,-0.214 0.523,-0.18 0.511,-0.148C0.498,-0.116 0.48,-0.088 0.457,-0.064C0.434,-0.04 0.407,-0.021 0.377,-0.007C0.347,0.006 0.315,0.013 0.28,0.013ZM0.28,-0.071C0.311,-0.071 0.34,-0.079 0.365,-0.096C0.39,-0.112 0.41,-0.134 0.424,-0.161C0.439,-0.189 0.446,-0.218 0.446,-0.25C0.446,-0.283 0.439,-0.313 0.424,-0.34C0.409,-0.367 0.389,-0.389 0.364,-0.405C0.339,-0.422 0.311,-0.43 0.28,-0.43C0.249,-0.43 0.22,-0.422 0.195,-0.405C0.17,-0.389 0.151,-0.367 0.136,-0.34C0.121,-0.312 0.114,-0.282 0.114,-0.25C0.114,-0.217 0.122,-0.186 0.137,-0.159C0.152,-0.132 0.172,-0.111 0.197,-0.095C0.222,-0.079 0.25,-0.071 0.28,-0.071Z" style="fill:rgb(212,180,104);fill-rule:nonzero;"/>
        </g>
        <g transform="matrix(150,0,0,150,2387.850779,894.204443)">
            <path d="M0.502,-0.311L0.502,-0L0.418,-0L0.418,-0.292C0.418,-0.318 0.412,-0.341 0.399,-0.361C0.387,-0.382 0.371,-0.398 0.35,-0.411C0.329,-0.423 0.306,-0.429 0.281,-0.429C0.256,-0.429 0.233,-0.423 0.212,-0.411C0.191,-0.398 0.175,-0.382 0.163,-0.361C0.15,-0.341 0.144,-0.318 0.144,-0.292L0.144,-0L0.06,-0L0.06,-0.5L0.144,-0.5L0.144,-0.438C0.162,-0.461 0.184,-0.48 0.211,-0.493C0.238,-0.507 0.267,-0.514 0.299,-0.514C0.336,-0.514 0.371,-0.505 0.401,-0.487C0.432,-0.469 0.456,-0.444 0.475,-0.413C0.493,-0.383 0.502,-0.349 0.502,-0.311Z" style="fill:rgb(212,180,104);fill-rule:nonzero;"/>
        </g>
        <g transform="matrix(150,0,0,150,2466.130092,894.204443)">
            <path d="M0.462,-0.5L0.546,-0.5L0.546,-0L0.462,-0L0.459,-0.085C0.443,-0.055 0.421,-0.032 0.394,-0.014C0.366,0.004 0.334,0.013 0.296,0.013C0.259,0.013 0.224,0.006 0.192,-0.008C0.16,-0.022 0.132,-0.041 0.108,-0.065C0.083,-0.09 0.064,-0.118 0.051,-0.15C0.037,-0.182 0.03,-0.217 0.03,-0.253C0.03,-0.289 0.037,-0.323 0.05,-0.355C0.064,-0.386 0.082,-0.414 0.106,-0.438C0.13,-0.462 0.157,-0.48 0.189,-0.494C0.22,-0.507 0.254,-0.514 0.29,-0.514C0.329,-0.514 0.363,-0.505 0.393,-0.486C0.423,-0.468 0.447,-0.444 0.465,-0.414L0.462,-0.5ZM0.294,-0.068C0.327,-0.068 0.355,-0.076 0.38,-0.093C0.404,-0.109 0.422,-0.131 0.436,-0.159C0.449,-0.186 0.455,-0.217 0.455,-0.25C0.455,-0.284 0.449,-0.315 0.435,-0.342C0.422,-0.37 0.403,-0.392 0.379,-0.408C0.355,-0.424 0.327,-0.432 0.294,-0.432C0.261,-0.432 0.231,-0.424 0.204,-0.408C0.177,-0.391 0.156,-0.369 0.14,-0.342C0.124,-0.314 0.116,-0.284 0.116,-0.25C0.116,-0.216 0.124,-0.186 0.14,-0.158C0.157,-0.131 0.178,-0.109 0.205,-0.093C0.232,-0.076 0.262,-0.068 0.294,-0.068Z" style="fill:rgb(212,180,104);fill-rule:nonzero;"/>
        </g>
        <g transform="matrix(150,0,0,150,2553.340041,894.204443)">
            <rect x="0.06" y="-0.75" width="0.084" height="0.75" style="fill:rgb(212,180,104);fill-rule:nonzero;"/>
        </g>
        <g transform="matrix(150,0,0,150,2582.439895,894.204443)">
        </g>
        <g transform="matrix(150,0,0,150,2616.939895,894.204443)">
            <path d="M0.283,-0L0.197,-0L0.03,-0.5L0.112,-0.5L0.241,-0.118L0.369,-0.5L0.455,-0.5L0.583,-0.118L0.711,-0.5L0.793,-0.5L0.626,-0L0.54,-0L0.411,-0.385L0.283,-0Z" style="fill:rgb(212,180,104);fill-rule:nonzero;"/>
        </g>
        <g transform="matrix(150,0,0,150,2734.579157,894.204443)">
            <path d="M0.28,0.013C0.234,0.013 0.192,0.001 0.154,-0.022C0.116,-0.046 0.086,-0.078 0.064,-0.118C0.041,-0.158 0.03,-0.202 0.03,-0.25C0.03,-0.287 0.036,-0.321 0.05,-0.353C0.062,-0.385 0.08,-0.413 0.103,-0.437C0.126,-0.461 0.153,-0.48 0.183,-0.493C0.213,-0.507 0.246,-0.514 0.28,-0.514C0.326,-0.514 0.368,-0.502 0.406,-0.479C0.444,-0.455 0.474,-0.423 0.496,-0.383C0.519,-0.343 0.53,-0.299 0.53,-0.25C0.53,-0.214 0.523,-0.18 0.511,-0.148C0.498,-0.116 0.48,-0.088 0.457,-0.064C0.434,-0.04 0.407,-0.021 0.377,-0.007C0.347,0.006 0.315,0.013 0.28,0.013ZM0.28,-0.071C0.311,-0.071 0.34,-0.079 0.365,-0.096C0.39,-0.112 0.41,-0.134 0.424,-0.161C0.439,-0.189 0.446,-0.218 0.446,-0.25C0.446,-0.283 0.439,-0.313 0.424,-0.34C0.409,-0.367 0.389,-0.389 0.364,-0.405C0.339,-0.422 0.311,-0.43 0.28,-0.43C0.249,-0.43 0.22,-0.422 0.195,-0.405C0.17,-0.389 0.151,-0.367 0.136,-0.34C0.121,-0.312 0.114,-0.282 0.114,-0.25C0.114,-0.217 0.122,-0.186 0.137,-0.159C0.152,-0.132 0.172,-0.111 0.197,-0.095C0.222,-0.079 0.25,-0.071 0.28,-0.071Z" style="fill:rgb(212,180,104);fill-rule:nonzero;"/>
        </g>
        <g transform="matrix(150,0,0,150,2816.104157,894.204443)">
            <path d="M0.06,-0L0.06,-0.5L0.144,-0.5L0.144,-0.438C0.162,-0.461 0.184,-0.48 0.211,-0.493C0.238,-0.507 0.267,-0.514 0.299,-0.514C0.318,-0.514 0.337,-0.511 0.355,-0.506L0.321,-0.422C0.308,-0.427 0.294,-0.429 0.281,-0.429C0.256,-0.429 0.233,-0.423 0.212,-0.411C0.191,-0.398 0.175,-0.382 0.163,-0.361C0.15,-0.341 0.144,-0.318 0.144,-0.292L0.144,-0L0.06,-0Z" style="fill:rgb(212,180,104);fill-rule:nonzero;"/>
        </g>
        <g transform="matrix(150,0,0,150,2867.544704,894.204443)">
            <rect x="0.06" y="-0.75" width="0.084" height="0.75" style="fill:rgb(212,180,104);fill-rule:nonzero;"/>
        </g>
        <g transform="matrix(150,0,0,150,2895.969558,894.204443)">
            <path d="M0.462,-0.75L0.546,-0.75L0.546,-0L0.462,-0L0.462,-0.085C0.446,-0.056 0.423,-0.032 0.394,-0.014C0.366,0.004 0.332,0.013 0.293,0.013C0.257,0.013 0.223,0.006 0.191,-0.007C0.159,-0.021 0.131,-0.04 0.107,-0.064C0.083,-0.088 0.064,-0.116 0.051,-0.148C0.037,-0.18 0.03,-0.214 0.03,-0.25C0.03,-0.286 0.037,-0.32 0.051,-0.352C0.064,-0.384 0.083,-0.412 0.107,-0.436C0.131,-0.46 0.159,-0.479 0.191,-0.493C0.223,-0.507 0.257,-0.513 0.293,-0.513C0.332,-0.513 0.366,-0.504 0.394,-0.486C0.423,-0.468 0.446,-0.445 0.462,-0.416L0.462,-0.75ZM0.294,-0.068C0.327,-0.068 0.355,-0.076 0.38,-0.093C0.404,-0.109 0.422,-0.131 0.436,-0.159C0.449,-0.186 0.455,-0.217 0.455,-0.25C0.455,-0.284 0.449,-0.315 0.435,-0.342C0.422,-0.37 0.403,-0.392 0.379,-0.408C0.355,-0.424 0.327,-0.432 0.294,-0.432C0.261,-0.432 0.231,-0.424 0.204,-0.408C0.177,-0.391 0.156,-0.369 0.14,-0.342C0.124,-0.314 0.116,-0.284 0.116,-0.25C0.116,-0.216 0.124,-0.186 0.14,-0.158C0.157,-0.131 0.178,-0.109 0.205,-0.093C0.232,-0.076 0.262,-0.068 0.294,-0.068Z" style="fill:rgb(212,180,104);fill-rule:nonzero;"/>
        </g>
        <g transform="matrix(150,0,0,150,2986.94263,894.204443)">
        </g>
    </g>
</svg>
