<?xml version="1.0" encoding="UTF-8" standalone="no"?>
<!DOCTYPE svg PUBLIC "-//W3C//DTD SVG 1.1//EN" "http://www.w3.org/Graphics/SVG/1.1/DTD/svg11.dtd">
<svg width="100%" height="100%" viewBox="0 0 888 1000" version="1.1" xmlns="http://www.w3.org/2000/svg" xmlns:xlink="http://www.w3.org/1999/xlink" xml:space="preserve" xmlns:serif="http://www.serif.com/" style="fill-rule:evenodd;clip-rule:evenodd;stroke-linejoin:round;stroke-miterlimit:2;">
    <g transform="matrix(0.555,0,0,0.555556,-138.75,-55.555556)">
        <g transform="matrix(0,-0.426439,0.426439,0,-193.070362,1888.379531)">
            <path d="M3607.5,4791C2960.38,4791 2435,4265.62 2435,3618.5C2435,2971.38 2960.38,2446 3607.5,2446L3607.5,2915C3230.013,2915 2904,3241.013 2904,3618.5C2904,3995.987 3230.013,4322 3607.5,4322L3607.5,4791Z" style="fill:rgb(212,180,104);"/>
        </g>
        <g transform="matrix(0.426439,0,0,0.426439,111.620469,-143.070362)">
            <path d="M3607.5,4791C2960.38,4791 2435,4265.62 2435,3618.5C2435,2971.38 2960.38,2446 3607.5,2446L3607.5,2915C3230.013,2915 2904,3241.013 2904,3618.5C2904,3995.987 3230.013,4322 3607.5,4322L3607.5,4791Z" style="fill:rgb(212,180,104);"/>
        </g>
        <g transform="matrix(0.426439,0,-0,0.426439,-588.379531,-943.070362)">
            <path d="M3607.5,4791C2960.38,4791 2435,4265.62 2435,3618.5C2435,2971.38 2960.38,2446 3607.5,2446L3607.5,2915C3230.013,2915 2904,3241.013 2904,3618.5C2904,3995.987 3230.013,4322 3607.5,4322L3607.5,4791Z" style="fill:rgb(212,180,104);"/>
        </g>
        <g transform="matrix(0,-0.426439,0.426439,0,-793.070362,2438.379531)">
            <path d="M3607.5,4791C2960.38,4791 2435,4265.62 2435,3618.5C2435,2971.38 2960.38,2446 3607.5,2446L3607.5,2915C3230.013,2915 2904,3241.013 2904,3618.5C2904,3995.987 3230.013,4322 3607.5,4322L3607.5,4791Z" style="fill:rgb(212,180,104);"/>
        </g>
        <g transform="matrix(1.195219,0,0,1.195219,-6382.47012,-3787.848606)">
            <circle cx="6720.5" cy="4340.5" r="125.5" style="fill:rgb(166,136,48);"/>
        </g>
        <g transform="matrix(1.195219,0,0,1.195219,-7082.47012,-3637.848606)">
            <circle cx="6720.5" cy="4340.5" r="125.5" style="fill:rgb(166,136,48);"/>
        </g>
        <g transform="matrix(1.195219,0,0,1.195219,-6682.47012,-4837.848606)">
            <circle cx="6720.5" cy="4340.5" r="125.5" style="fill:rgb(166,136,48);"/>
        </g>
    </g>
</svg>
