<?xml version="1.0" encoding="UTF-8" standalone="no"?>
<!DOCTYPE svg PUBLIC "-//W3C//DTD SVG 1.1//EN" "http://www.w3.org/Graphics/SVG/1.1/DTD/svg11.dtd">
<svg width="100%" height="100%" viewBox="0 0 1000 1000" version="1.1" xmlns="http://www.w3.org/2000/svg" xmlns:xlink="http://www.w3.org/1999/xlink" xml:space="preserve" xmlns:serif="http://www.serif.com/" style="fill-rule:evenodd;clip-rule:evenodd;stroke-linecap:round;stroke-linejoin:round;">
    <g transform="matrix(0.99108,0,0,0.99108,2.973241,5.946482)">
        <rect x="-3" y="-6" width="1009" height="1009" style="fill:rgb(15,14,14);"/>
    </g>
    <g transform="matrix(4,0,0,4,730,730)">
        <rect x="-50" y="-50" width="100" height="100" style="fill:none;"/>
        <g transform="matrix(1,0,0,1,-50,-50)">
            <g transform="matrix(4.166667,0,0,4.166667,0,0)">
                <path d="M19,21L19,19C19,16.806 17.194,15 15,15L9,15C6.806,15 5,16.806 5,19L5,21" style="fill:none;fill-rule:nonzero;stroke:rgb(212,180,104);stroke-width:2px;"/>
            </g>
            <g transform="matrix(4.166667,0,0,4.166667,0,0)">
                <circle cx="12" cy="7" r="4" style="fill:none;stroke:rgb(212,180,104);stroke-width:2px;"/>
            </g>
        </g>
        <rect x="-50" y="-50" width="100" height="100" style="fill:none;stroke:rgb(196,138,0);stroke-width:1.56px;stroke-miterlimit:1.5;"/>
    </g>
    <g transform="matrix(4,0,0,4,270,730)">
        <rect x="-50" y="-50" width="100" height="100" style="fill:none;"/>
        <g transform="matrix(1,0,0,1,-50,-50)">
            <g transform="matrix(4.166667,0,0,4.166667,0,0)">
                <path d="M19,21L19,19C19,16.806 17.194,15 15,15L9,15C6.806,15 5,16.806 5,19L5,21" style="fill:none;fill-rule:nonzero;stroke:rgb(212,180,104);stroke-width:2px;"/>
            </g>
            <g transform="matrix(4.166667,0,0,4.166667,0,0)">
                <circle cx="12" cy="7" r="4" style="fill:none;stroke:rgb(212,180,104);stroke-width:2px;"/>
            </g>
        </g>
        <rect x="-50" y="-50" width="100" height="100" style="fill:none;stroke:rgb(196,138,0);stroke-width:1.56px;stroke-miterlimit:1.5;"/>
    </g>
    <g transform="matrix(4,0,0,4,500,270)">
        <rect x="-50" y="-50" width="100" height="100" style="fill:none;"/>
        <g transform="matrix(1,0,0,1,-50,-50)">
            <g transform="matrix(4.166667,0,0,4.166667,0,0)">
                <path d="M19,21L19,19C19,16.806 17.194,15 15,15L9,15C6.806,15 5,16.806 5,19L5,21" style="fill:none;fill-rule:nonzero;stroke:rgb(212,180,104);stroke-width:2px;"/>
            </g>
            <g transform="matrix(4.166667,0,0,4.166667,0,0)">
                <circle cx="12" cy="7" r="4" style="fill:none;stroke:rgb(212,180,104);stroke-width:2px;"/>
            </g>
        </g>
        <rect x="-50" y="-50" width="100" height="100" style="fill:none;stroke:rgb(196,138,0);stroke-width:1.56px;stroke-miterlimit:1.5;"/>
    </g>
</svg>
