<?xml version="1.0" encoding="UTF-8" standalone="no"?>
<!DOCTYPE svg PUBLIC "-//W3C//DTD SVG 1.1//EN" "http://www.w3.org/Graphics/SVG/1.1/DTD/svg11.dtd">
<svg width="100%" height="100%" viewBox="0 0 1000 1000" version="1.1" xmlns="http://www.w3.org/2000/svg" xmlns:xlink="http://www.w3.org/1999/xlink" xml:space="preserve" xmlns:serif="http://www.serif.com/" style="fill-rule:evenodd;clip-rule:evenodd;stroke-linecap:round;stroke-linejoin:round;stroke-miterlimit:1.5;">
    <g transform="matrix(0.99108,0,0,0.99108,2.973241,5.946482)">
        <rect x="-3" y="-6" width="1009" height="1009" style="fill:rgb(15,14,14);"/>
    </g>
    <path d="M445.785,613.499L346.636,537.499" style="fill:none;stroke:rgb(212,180,104);stroke-width:6.25px;"/>
    <g transform="matrix(1,0,0,1,58,-172)">
        <path d="M453.785,613.499L505.636,531.499" style="fill:none;stroke:rgb(212,180,104);stroke-width:6.25px;"/>
    </g>
    <g transform="matrix(1,0,0,1,320,-36)">
        <path d="M430.785,595.499L286.636,507.499" style="fill:none;stroke:rgb(212,180,104);stroke-width:6.25px;"/>
    </g>
    <g transform="matrix(1,0,0,1,130,-33)">
        <path d="M410.785,615.499L383.636,531.499" style="fill:none;stroke:rgb(212,180,104);stroke-width:6.25px;"/>
    </g>
    <path d="M367.103,658.951L425.278,717.126" style="fill:none;stroke:black;stroke-width:39.58px;"/>
    <g transform="matrix(1.104651,0,0,1.055556,37.686047,-150.166667)">
        <path d="M347,396C347,387.721 340.577,381 332.667,381L189.333,381C181.423,381 175,387.721 175,396L175,426C175,434.279 181.423,441 189.333,441L332.667,441C340.577,441 347,434.279 347,426L347,396Z" style="fill:rgb(101,101,101);"/>
    </g>
    <g transform="matrix(1.104651,0,0,1.055556,371.686047,410.833333)">
        <path d="M347,396C347,387.721 340.577,381 332.667,381L189.333,381C181.423,381 175,387.721 175,396L175,426C175,434.279 181.423,441 189.333,441L332.667,441C340.577,441 347,434.279 347,426L347,396Z" style="fill:rgb(101,101,101);"/>
    </g>
    <g transform="matrix(1.104651,0,0,1.055556,591.686047,500.833333)">
        <path d="M347,396C347,387.721 340.577,381 332.667,381L189.333,381C181.423,381 175,387.721 175,396L175,426C175,434.279 181.423,441 189.333,441L332.667,441C340.577,441 347,434.279 347,426L347,396Z" style="fill:rgb(101,101,101);"/>
    </g>
    <g transform="matrix(1.104651,0,0,1.055556,66.686047,375.833333)">
        <path d="M347,396C347,387.721 340.577,381 332.667,381L189.333,381C181.423,381 175,387.721 175,396L175,426C175,434.279 181.423,441 189.333,441L332.667,441C340.577,441 347,434.279 347,426L347,396Z" style="fill:rgb(101,101,101);"/>
    </g>
    <g transform="matrix(1.104651,0,0,1.055556,-60.313953,256.833333)">
        <path d="M347,396C347,387.721 340.577,381 332.667,381L189.333,381C181.423,381 175,387.721 175,396L175,426C175,434.279 181.423,441 189.333,441L332.667,441C340.577,441 347,434.279 347,426L347,396Z" style="fill:rgb(101,101,101);"/>
    </g>
    <g transform="matrix(1.104651,0,0,1.055556,-130.313953,486.833333)">
        <path d="M347,396C347,387.721 340.577,381 332.667,381L189.333,381C181.423,381 175,387.721 175,396L175,426C175,434.279 181.423,441 189.333,441L332.667,441C340.577,441 347,434.279 347,426L347,396Z" style="fill:rgb(101,101,101);"/>
    </g>
    <g transform="matrix(1.104651,0,0,1.055556,497.686047,256.833333)">
        <path d="M347,396C347,387.721 340.577,381 332.667,381L189.333,381C181.423,381 175,387.721 175,396L175,426C175,434.279 181.423,441 189.333,441L332.667,441C340.577,441 347,434.279 347,426L347,396Z" style="fill:rgb(101,101,101);"/>
    </g>
    <g transform="matrix(1.104651,0,0,1.055556,553.686047,121.833333)">
        <path d="M347,396C347,387.721 340.577,381 332.667,381L189.333,381C181.423,381 175,387.721 175,396L175,426C175,434.279 181.423,441 189.333,441L332.667,441C340.577,441 347,434.279 347,426L347,396Z" style="fill:rgb(212,180,104);"/>
    </g>
    <g transform="matrix(1.104651,0,0,1.055556,-36.313953,104.833333)">
        <path d="M347,396C347,387.721 340.577,381 332.667,381L189.333,381C181.423,381 175,387.721 175,396L175,426C175,434.279 181.423,441 189.333,441L332.667,441C340.577,441 347,434.279 347,426L347,396Z" style="fill:rgb(212,180,104);"/>
    </g>
    <g transform="matrix(1.104651,0,0,1.055556,250.686047,176.833333)">
        <path d="M347,396C347,387.721 340.577,381 332.667,381L189.333,381C181.423,381 175,387.721 175,396L175,426C175,434.279 181.423,441 189.333,441L332.667,441C340.577,441 347,434.279 347,426L347,396Z" style="fill:rgb(212,180,104);"/>
    </g>
    <g transform="matrix(1.104651,0,0,1.055556,264.686047,291.833333)">
        <path d="M347,396C347,387.721 340.577,381 332.667,381L189.333,381C181.423,381 175,387.721 175,396L175,426C175,434.279 181.423,441 189.333,441L332.667,441C340.577,441 347,434.279 347,426L347,396Z" style="fill:rgb(101,101,101);"/>
    </g>
    <g transform="matrix(1.104651,0,0,1.055556,223.686047,36.833333)">
        <path d="M347,396C347,387.721 340.577,381 332.667,381L189.333,381C181.423,381 175,387.721 175,396L175,426C175,434.279 181.423,441 189.333,441L332.667,441C340.577,441 347,434.279 347,426L347,396Z" style="fill:rgb(212,180,104);"/>
    </g>
    <g transform="matrix(1.104651,0,0,1.055556,293.686047,-98.166667)">
        <path d="M347,396C347,387.721 340.577,381 332.667,381L189.333,381C181.423,381 175,387.721 175,396L175,426C175,434.279 181.423,441 189.333,441L332.667,441C340.577,441 347,434.279 347,426L347,396Z" style="fill:rgb(212,180,104);"/>
    </g>
    <g transform="matrix(1.104651,0,0,1.055556,556.686047,-176.166667)">
        <path d="M347,396C347,387.721 340.577,381 332.667,381L189.333,381C181.423,381 175,387.721 175,396L175,426C175,434.279 181.423,441 189.333,441L332.667,441C340.577,441 347,434.279 347,426L347,396Z" style="fill:rgb(101,101,101);"/>
    </g>
    <g transform="matrix(1.104651,0,0,1.055556,452.686047,-306.166667)">
        <path d="M347,396C347,387.721 340.577,381 332.667,381L189.333,381C181.423,381 175,387.721 175,396L175,426C175,434.279 181.423,441 189.333,441L332.667,441C340.577,441 347,434.279 347,426L347,396Z" style="fill:rgb(101,101,101);"/>
    </g>
    <g transform="matrix(1.104651,0,0,1.055556,496.686047,-9.166667)">
        <path d="M347,396C347,387.721 340.577,381 332.667,381L189.333,381C181.423,381 175,387.721 175,396L175,426C175,434.279 181.423,441 189.333,441L332.667,441C340.577,441 347,434.279 347,426L347,396Z" style="fill:rgb(101,101,101);"/>
    </g>
    <g transform="matrix(1.104651,0,0,1.055556,177.686047,-256.166667)">
        <path d="M347,396C347,387.721 340.577,381 332.667,381L189.333,381C181.423,381 175,387.721 175,396L175,426C175,434.279 181.423,441 189.333,441L332.667,441C340.577,441 347,434.279 347,426L347,396Z" style="fill:rgb(101,101,101);"/>
    </g>
    <g transform="matrix(1.104651,0,0,1.055556,-68.313953,-315.166667)">
        <path d="M347,396C347,387.721 340.577,381 332.667,381L189.333,381C181.423,381 175,387.721 175,396L175,426C175,434.279 181.423,441 189.333,441L332.667,441C340.577,441 347,434.279 347,426L347,396Z" style="fill:rgb(101,101,101);"/>
    </g>
    <g transform="matrix(1.104651,0,0,1.055556,-136.313953,-32.166667)">
        <path d="M347,396C347,387.721 340.577,381 332.667,381L189.333,381C181.423,381 175,387.721 175,396L175,426C175,434.279 181.423,441 189.333,441L332.667,441C340.577,441 347,434.279 347,426L347,396Z" style="fill:rgb(101,101,101);"/>
    </g>
</svg>
