<?xml version="1.0" encoding="UTF-8" standalone="no"?>
<!DOCTYPE svg PUBLIC "-//W3C//DTD SVG 1.1//EN" "http://www.w3.org/Graphics/SVG/1.1/DTD/svg11.dtd">
<svg width="100%" height="100%" viewBox="0 0 1000 1000" version="1.1" xmlns="http://www.w3.org/2000/svg" xmlns:xlink="http://www.w3.org/1999/xlink" xml:space="preserve" xmlns:serif="http://www.serif.com/" style="fill-rule:evenodd;clip-rule:evenodd;stroke-linecap:round;stroke-linejoin:round;stroke-miterlimit:1.5;">
    <g transform="matrix(5.208333,0,0,0.974659,244.791667,17.54386)">
        <rect x="-47" y="-18" width="192" height="1026" style="fill:rgb(15,14,14);"/>
    </g>
    <g transform="matrix(1.043478,0,0,0.935065,-39.869565,10.922078)">
        <path d="M963,237.5C963,216.251 947.541,199 928.5,199L767.5,199C748.459,199 733,216.251 733,237.5C733,258.749 748.459,276 767.5,276L928.5,276C947.541,276 963,258.749 963,237.5Z" style="fill:rgb(74,154,176);"/>
    </g>
    <g transform="matrix(1.373913,0,0,1.231169,-364.078261,562.197403)">
        <path d="M963,237.5C963,216.251 947.541,199 928.5,199L767.5,199C748.459,199 733,216.251 733,237.5C733,258.749 748.459,276 767.5,276L928.5,276C947.541,276 963,258.749 963,237.5Z" style="fill:rgb(106,116,128);"/>
    </g>
    <g transform="matrix(1.734783,0,0,1.554545,-923.595652,303.445455)">
        <path d="M963,237.5C963,216.251 947.541,199 928.5,199L767.5,199C748.459,199 733,216.251 733,237.5C733,258.749 748.459,276 767.5,276L928.5,276C947.541,276 963,258.749 963,237.5Z" style="fill:rgb(82,85,140);"/>
    </g>
    <g transform="matrix(1.104348,0,0,0.98961,-772.486957,445.067532)">
        <path d="M963,237.5C963,216.251 947.541,199 928.5,199L767.5,199C748.459,199 733,216.251 733,237.5C733,258.749 748.459,276 767.5,276L928.5,276C947.541,276 963,258.749 963,237.5Z" style="fill:rgb(74,154,176);"/>
    </g>
    <g>
        <g transform="matrix(0.502076,0.105356,-0.205368,0.978685,469.127574,0.699933)">
            <path d="M230.134,407.534L469.887,407.341" style="fill:none;stroke:rgb(255,254,254);stroke-width:4.98px;"/>
        </g>
        <g transform="matrix(1.055732,0,0,1,106.40772,-4)">
            <path d="M592.674,238.421L452.623,133.421" style="fill:none;stroke:rgb(255,254,254);stroke-width:3.85px;"/>
        </g>
        <g transform="matrix(1.055732,0,0,1,194.40772,149)">
            <path d="M424.071,709.421L333.791,584.054" style="fill:none;stroke:rgb(255,254,254);stroke-width:3.85px;"/>
        </g>
        <g transform="matrix(1.055732,0,0,1,366.40772,104)">
            <path d="M392.813,293.421L438.594,204.491L458.306,165.421" style="fill:rgb(255,253,253);stroke:rgb(255,254,254);stroke-width:3.85px;"/>
        </g>
        <g transform="matrix(1.055732,0,0,1,-138.59228,216)">
            <path d="M286.726,424.421L445.993,275.421" style="fill:rgb(255,253,253);stroke:rgb(255,254,254);stroke-width:3.85px;"/>
        </g>
        <g transform="matrix(1.055732,0,0,1,54.40772,208)">
            <path d="M465.748,405.421L266.023,283.421" style="fill:none;stroke:rgb(255,254,254);stroke-width:3.85px;"/>
        </g>
        <g transform="matrix(1.055697,-0.001697,-0.001607,0.921955,366.954913,275.575122)">
            <path d="M417.441,575.466L386.318,242.421" style="fill:none;stroke:rgb(255,254,254);stroke-width:4px;"/>
        </g>
    </g>
    <g transform="matrix(1,0,0,1,-6,-2)">
        <rect x="355" y="94" width="235" height="76" style="fill:rgb(142,74,82);"/>
    </g>
    <g transform="matrix(1.302128,0,0,1.302128,159.744681,276.038298)">
        <rect x="355" y="94" width="235" height="76" style="fill:rgb(168,104,82);"/>
    </g>
    <g transform="matrix(1.757447,0,0,1.757447,-536.893617,191.8)">
        <rect x="355" y="94" width="235" height="76" style="fill:rgb(176,138,74);"/>
    </g>
</svg>
